<mxfile host="Electron" modified="2023-09-12T01:55:50.842Z" agent="Mozilla/5.0 (Windows NT 10.0; Win64; x64) AppleWebKit/537.36 (KHTML, like Gecko) draw.io/21.5.1 Chrome/112.0.5615.204 Electron/24.6.0 Safari/537.36" etag="wTbyei6t39s-fHfEJY_g" version="21.5.1" type="device">
  <diagram name="Page-1" id="WTxy-WzLW9nBEeRqSj2U">
    <mxGraphModel dx="2060" dy="840" grid="1" gridSize="10" guides="1" tooltips="1" connect="1" arrows="1" fold="1" page="1" pageScale="1" pageWidth="827" pageHeight="1169" math="0" shadow="0">
      <root>
        <mxCell id="0" />
        <mxCell id="1" parent="0" />
        <mxCell id="ZHi0Dastb0yQ3DSdDDk9-1" value="" style="sketch=0;points=[[0,0,0],[0.25,0,0],[0.5,0,0],[0.75,0,0],[1,0,0],[0,1,0],[0.25,1,0],[0.5,1,0],[0.75,1,0],[1,1,0],[0,0.25,0],[0,0.5,0],[0,0.75,0],[1,0.25,0],[1,0.5,0],[1,0.75,0]];points=[[0,0,0],[0.25,0,0],[0.5,0,0],[0.75,0,0],[1,0,0],[0,1,0],[0.25,1,0],[0.5,1,0],[0.75,1,0],[1,1,0],[0,0.25,0],[0,0.5,0],[0,0.75,0],[1,0.25,0],[1,0.5,0],[1,0.75,0]];outlineConnect=0;fontColor=#232F3E;gradientColor=#F34482;gradientDirection=north;fillColor=#BC1356;strokeColor=#ffffff;dashed=0;verticalLabelPosition=bottom;verticalAlign=top;align=center;html=1;fontSize=12;fontStyle=0;aspect=fixed;shape=mxgraph.aws4.resourceIcon;resIcon=mxgraph.aws4.systems_manager;" vertex="1" parent="1">
          <mxGeometry x="410" y="270" width="78" height="78" as="geometry" />
        </mxCell>
        <mxCell id="ZHi0Dastb0yQ3DSdDDk9-2" value="IAM Permissions" style="sketch=0;outlineConnect=0;fontColor=#232F3E;gradientColor=none;fillColor=#BF0816;strokeColor=none;dashed=0;verticalLabelPosition=bottom;verticalAlign=top;align=center;html=1;fontSize=12;fontStyle=0;aspect=fixed;pointerEvents=1;shape=mxgraph.aws4.permissions;" vertex="1" parent="1">
          <mxGeometry x="590" y="57" width="62" height="78" as="geometry" />
        </mxCell>
        <mxCell id="ZHi0Dastb0yQ3DSdDDk9-10" style="edgeStyle=orthogonalEdgeStyle;rounded=0;orthogonalLoop=1;jettySize=auto;html=1;" edge="1" parent="1" source="ZHi0Dastb0yQ3DSdDDk9-6" target="ZHi0Dastb0yQ3DSdDDk9-1">
          <mxGeometry relative="1" as="geometry" />
        </mxCell>
        <mxCell id="ZHi0Dastb0yQ3DSdDDk9-6" value="EC2 Instance&lt;br/&gt;(SSM Agent)" style="sketch=0;points=[[0,0,0],[0.25,0,0],[0.5,0,0],[0.75,0,0],[1,0,0],[0,1,0],[0.25,1,0],[0.5,1,0],[0.75,1,0],[1,1,0],[0,0.25,0],[0,0.5,0],[0,0.75,0],[1,0.25,0],[1,0.5,0],[1,0.75,0]];outlineConnect=0;fontColor=#232F3E;gradientColor=#F78E04;gradientDirection=north;fillColor=#D05C17;strokeColor=#ffffff;dashed=0;verticalLabelPosition=middle;verticalAlign=middle;align=left;html=1;fontSize=12;fontStyle=0;aspect=fixed;shape=mxgraph.aws4.resourceIcon;resIcon=mxgraph.aws4.ec2;labelPosition=right;spacingLeft=5;" vertex="1" parent="1">
          <mxGeometry x="730" y="270" width="78" height="78" as="geometry" />
        </mxCell>
        <mxCell id="ZHi0Dastb0yQ3DSdDDk9-9" style="edgeStyle=orthogonalEdgeStyle;rounded=0;orthogonalLoop=1;jettySize=auto;html=1;" edge="1" parent="1" source="ZHi0Dastb0yQ3DSdDDk9-7" target="ZHi0Dastb0yQ3DSdDDk9-1">
          <mxGeometry relative="1" as="geometry" />
        </mxCell>
        <mxCell id="ZHi0Dastb0yQ3DSdDDk9-7" value="On-premise&lt;br/&gt;Server/VM&lt;br/&gt;(SSM Agent)" style="sketch=0;outlineConnect=0;fontColor=#232F3E;gradientColor=none;fillColor=#232F3D;strokeColor=none;dashed=0;verticalLabelPosition=middle;verticalAlign=middle;align=left;html=1;fontSize=12;fontStyle=0;aspect=fixed;pointerEvents=1;shape=mxgraph.aws4.traditional_server;labelPosition=right;spacingLeft=5;" vertex="1" parent="1">
          <mxGeometry x="746.5" y="135" width="45" height="78" as="geometry" />
        </mxCell>
        <mxCell id="ZHi0Dastb0yQ3DSdDDk9-11" style="edgeStyle=orthogonalEdgeStyle;rounded=0;orthogonalLoop=1;jettySize=auto;html=1;" edge="1" parent="1" source="ZHi0Dastb0yQ3DSdDDk9-8" target="ZHi0Dastb0yQ3DSdDDk9-1">
          <mxGeometry relative="1" as="geometry" />
        </mxCell>
        <mxCell id="ZHi0Dastb0yQ3DSdDDk9-8" value="EC2 Instance&lt;br/&gt;(SSM Agent)" style="sketch=0;points=[[0,0,0],[0.25,0,0],[0.5,0,0],[0.75,0,0],[1,0,0],[0,1,0],[0.25,1,0],[0.5,1,0],[0.75,1,0],[1,1,0],[0,0.25,0],[0,0.5,0],[0,0.75,0],[1,0.25,0],[1,0.5,0],[1,0.75,0]];outlineConnect=0;fontColor=#232F3E;gradientColor=#F78E04;gradientDirection=north;fillColor=#D05C17;strokeColor=#ffffff;dashed=0;verticalLabelPosition=middle;verticalAlign=middle;align=left;html=1;fontSize=12;fontStyle=0;aspect=fixed;shape=mxgraph.aws4.resourceIcon;resIcon=mxgraph.aws4.ec2;labelPosition=right;spacingLeft=5;" vertex="1" parent="1">
          <mxGeometry x="730" y="410" width="78" height="78" as="geometry" />
        </mxCell>
      </root>
    </mxGraphModel>
  </diagram>
</mxfile>
